<svg xmlns="http://www.w3.org/2000/svg" x="0px" y="0px" width="96" height="96" viewBox="0 0 48 48">
<path fill="#ffb74d" d="M24,38H14c-1.105,0-2-0.895-2-2V26h12V38z"></path><path fill="#f57c00" d="M34,38H24V26h12v10C36,37.105,35.105,38,34,38z"></path><rect width="7" height="3" x="15" y="31" fill="#c16629"></rect><polygon fill="#ffb74d" points="24,7 24,19 21,22 23,7"></polygon><polygon fill="#f57c00" points="24,7 24,19 27,22 25,7"></polygon><circle cx="31.5" cy="32.5" r="1.5" fill="#c62828"></circle><path fill="#cfd8dc" d="M14,19h20c1.105,0,2,0.895,2,2v5H12v-5C12,19.895,12.895,19,14,19z"></path><path fill="#bdbdbd" d="M24,19h10c1.105,0,2,0.895,2,2v5H24V19z"></path><rect width="3" height="3" x="29" y="21" fill="#4caf50"></rect><path fill="#fff" d="M23,6c0,0-6.421,1-8,1c-2.761,0-5,2.239-5,5s2.239,5,5,5C21,17,23,6,23,6z"></path><path fill="#fff" d="M25,6c0,0,6.421,1,8,1c2.761,0,5,2.239,5,5s-2.239,5-5,5C27,17,25,6,25,6z"></path><circle cx="17" cy="11" r="3" fill="#424242"></circle><circle cx="31" cy="11" r="3" fill="#424242"></circle><circle cx="17" cy="10" r="1" fill="#fff"></circle><path fill="#78909c" d="M33,18c-6.742,0-8.893-10.363-8.98-10.804L23.78,6H33c3.309,0,6,2.691,6,6S36.309,18,33,18z M26.285,8c0.714,2.491,2.741,8,6.715,8c2.206,0,4-1.794,4-4s-1.794-4-4-4H26.285z"></path><circle cx="31" cy="10" r="1" fill="#fff"></circle><path fill="#424242" d="M10,28H6c-1.105,0-2,0.895-2,2v0h8v0C12,28.895,11.105,28,10,28z"></path><path fill="#78909c" d="M12,42H4v0c0,1.105,0.895,2,2,2h4C11.105,44,12,43.105,12,42L12,42z"></path><rect width="8" height="3" x="4" y="30" fill="#78909c"></rect><rect width="8" height="3" x="4" y="33" fill="#424242"></rect><rect width="8" height="3" x="4" y="36" fill="#78909c"></rect><rect width="8" height="3" x="4" y="39" fill="#424242"></rect><path fill="#424242" d="M42,28h-4c-1.105,0-2,0.895-2,2v0h8v0C44,28.895,43.105,28,42,28z"></path><path fill="#78909c" d="M44,42h-8v0c0,1.105,0.895,2,2,2h4C43.105,44,44,43.105,44,42L44,42z"></path><rect width="8" height="3" x="36" y="30" fill="#78909c"></rect><rect width="8" height="3" x="36" y="33" fill="#424242"></rect><rect width="8" height="3" x="36" y="36" fill="#78909c"></rect><rect width="8" height="3" x="36" y="39" fill="#424242"></rect><path fill="#78909c" d="M15,18c-3.309,0-6-2.691-6-6s2.691-6,6-6h9.22L23.98,7.196C23.893,7.637,21.742,18,15,18z M15,8	c-2.206,0-4,1.794-4,4s1.794,4,4,4c3.974,0,6.001-5.509,6.715-8H15z M23,8h0.01H23z"></path>
</svg>